<?xml version="1.0" standalone="no"?>
<!DOCTYPE svg PUBLIC "-//W3C//DTD SVG 20010904//EN"
 "http://www.w3.org/TR/2001/REC-SVG-20010904/DTD/svg10.dtd">
<svg version="1.0" xmlns="http://www.w3.org/2000/svg"
 width="205.000000pt" height="245.000000pt" viewBox="0 0 205.000000 245.000000"
 preserveAspectRatio="xMidYMid meet">

<g transform="translate(0.000000,245.000000) scale(0.100000,-0.100000)"
fill="#000000" stroke="none">
<path d="M947 2394 c-54 -31 -96 -61 -94 -67 2 -6 30 -27 63 -46 228 -132 646
-386 650 -395 2 -6 5 -217 7 -468 2 -252 6 -460 9 -464 8 -7 154 72 180 98 17
17 18 45 18 487 l0 469 -27 22 c-16 12 -108 68 -205 125 -97 56 -189 112 -205
123 -35 25 -286 172 -293 172 -3 0 -49 -25 -103 -56z"/>
<path d="M540 2160 c-113 -66 -270 -156 -349 -202 -80 -46 -153 -90 -164 -99
-17 -13 -21 -30 -23 -115 -2 -54 0 -105 5 -112 6 -11 44 7 162 76 259 150 573
327 587 330 12 3 286 -155 598 -344 66 -41 128 -74 137 -74 15 0 17 15 17 114
l0 114 -127 77 c-396 241 -595 355 -615 354 -13 0 -115 -54 -228 -119z"/>
<path d="M480 1802 c-432 -248 -454 -261 -467 -279 -10 -13 -13 -117 -13 -442
0 -234 3 -436 6 -448 8 -29 182 -136 196 -120 1 1 5 204 8 451 l5 450 365 208
c201 114 366 214 368 221 3 14 -158 117 -181 117 -7 0 -136 -72 -287 -158z"/>
<path d="M1847 1883 c-2 -43 -4 -251 -5 -463 0 -212 -3 -392 -6 -400 -6 -14
-214 -138 -575 -341 -64 -36 -116 -71 -116 -79 0 -11 167 -119 186 -120 3 0
109 59 235 131 126 72 275 155 331 185 164 88 144 13 150 570 5 457 4 480 -14
495 -33 28 -152 99 -167 99 -11 0 -15 -19 -19 -77z"/>
<path d="M360 1421 l-85 -48 -9 -299 c-4 -165 -5 -372 -1 -460 l7 -161 82 -48
c44 -27 218 -129 385 -228 l303 -180 62 33 c101 55 138 80 134 92 -3 7 -144
93 -314 193 -170 99 -343 201 -384 225 l-75 45 -3 435 c-1 239 -6 437 -10 442
-4 4 -45 -15 -92 -41z"/>
<path d="M540 736 l0 -114 198 -117 c108 -65 285 -169 392 -233 l194 -115 36
20 c19 10 98 55 175 100 77 44 222 126 321 182 122 68 184 108 187 122 10 36
-5 210 -17 207 -7 -2 -166 -90 -354 -196 l-342 -194 -299 176 c-165 97 -337
198 -383 226 -46 27 -89 50 -95 50 -10 0 -13 -29 -13 -114z"/>
</g>
</svg>
